<?xml version="1.0" encoding="UTF-8"?>
<svg xmlns="http://www.w3.org/2000/svg" xmlns:xlink="http://www.w3.org/1999/xlink" width="100px" height="100px" viewBox="0 0 100 100" version="1.1">
<g id="surface1">
<path style="fill:none;stroke-width:25;stroke-linecap:butt;stroke-linejoin:miter;stroke:rgb(0%,0%,0%);stroke-opacity:1;stroke-miterlimit:4;" d="M 468.577305 491.526953 L 468.577305 364.292695 L 1063.68543 364.292695 C 1701.263594 364.380625 1670.576133 363.677188 1697.834336 377.658008 C 1714.277188 386.011328 1734.501016 405.707578 1744.085352 422.414219 C 1758.68168 447.913828 1760.440273 460.663633 1760.440273 543.581328 L 1760.440273 618.849141 L 468.577305 618.849141 Z M 468.577305 491.526953 " transform="matrix(0.0444247,0,0,0.0444247,0,0)"/>
<path style="fill:none;stroke-width:25;stroke-linecap:butt;stroke-linejoin:miter;stroke:rgb(0%,0%,0%);stroke-opacity:1;stroke-miterlimit:4;" d="M 845.004297 881.583047 L 845.004297 751.535039 L 1760.440273 751.535039 L 1760.440273 1011.543125 L 845.004297 1011.543125 Z M 466.203203 1255.284219 L 466.203203 1382.606406 L 1061.311328 1382.606406 C 1698.977422 1382.518477 1668.202031 1383.221914 1695.460234 1369.241094 C 1711.903086 1360.887773 1732.214844 1341.191523 1741.71125 1324.484883 C 1756.395508 1298.985273 1758.066172 1286.235469 1758.066172 1203.317773 L 1758.066172 1128.049961 L 466.203203 1128.049961 Z M 466.203203 1255.284219 " transform="matrix(0.0444247,0,0,0.0444247,0,0)"/>
</g>
</svg>
