<?xml version="1.0" encoding="UTF-8"?>
<svg xmlns="http://www.w3.org/2000/svg" xmlns:xlink="http://www.w3.org/1999/xlink" width="25px" height="25px" viewBox="0 0 25 25" version="1.1">
<g id="surface1">
<path style="fill:none;stroke-width:25;stroke-linecap:butt;stroke-linejoin:miter;stroke:rgb(0%,0%,0%);stroke-opacity:1;stroke-miterlimit:4;" d="M 468.489375 491.702813 L 468.489375 364.380625 L 1063.5975 364.380625 C 1701.263594 364.380625 1670.664063 363.677188 1697.746406 377.745938 C 1714.277188 386.187188 1734.676875 405.531719 1744.173281 422.414219 C 1758.59375 447.737969 1760.352344 460.751563 1760.352344 543.757187 L 1760.352344 619.025 L 468.489375 619.025 Z M 468.489375 491.702813 " transform="matrix(0.0111062,0,0,0.0111062,0,0)"/>
<path style="fill:none;stroke-width:25;stroke-linecap:butt;stroke-linejoin:miter;stroke:rgb(0%,0%,0%);stroke-opacity:1;stroke-miterlimit:4;" d="M 845.180156 881.407188 L 845.180156 751.622969 L 1760.352344 751.622969 L 1760.352344 1011.543125 L 845.180156 1011.543125 Z M 466.027344 1255.284219 L 466.027344 1382.606406 L 1061.487188 1382.606406 C 1698.801563 1382.606406 1668.202031 1383.309844 1695.636094 1369.241094 C 1711.815156 1360.799844 1732.214844 1341.103594 1741.71125 1324.572813 C 1756.483438 1298.897344 1758.242031 1286.235469 1758.242031 1203.229844 L 1758.242031 1127.962031 L 466.027344 1127.962031 Z M 466.027344 1255.284219 " transform="matrix(0.0111062,0,0,0.0111062,0,0)"/>
</g>
</svg>
