<?xml version="1.0" encoding="UTF-8"?>
<svg xmlns="http://www.w3.org/2000/svg" xmlns:xlink="http://www.w3.org/1999/xlink" width="50px" height="50px" viewBox="0 0 50 50" version="1.1">
<g id="surface1">
<path style="fill:none;stroke-width:25;stroke-linecap:butt;stroke-linejoin:miter;stroke:rgb(0%,0%,0%);stroke-opacity:1;stroke-miterlimit:4;" d="M 468.489375 491.526953 L 468.489375 364.204766 L 1063.773359 364.380625 C 1701.263594 364.380625 1670.488203 363.677188 1697.922266 377.570078 C 1714.277188 386.011328 1734.501016 405.707578 1744.173281 422.414219 C 1758.769609 447.913828 1760.352344 460.575703 1760.352344 543.581328 L 1760.352344 618.849141 L 468.489375 618.849141 Z M 468.489375 491.526953 " transform="matrix(0.0222124,0,0,0.0222124,0,0)"/>
<path style="fill:none;stroke-width:25;stroke-linecap:butt;stroke-linejoin:miter;stroke:rgb(0%,0%,0%);stroke-opacity:1;stroke-miterlimit:4;" d="M 845.004297 881.583047 L 845.004297 751.622969 L 1760.352344 751.622969 L 1760.352344 1011.543125 L 845.004297 1011.543125 Z M 466.203203 1255.284219 L 466.203203 1382.606406 L 1061.311328 1382.606406 C 1698.977422 1382.606406 1668.202031 1383.133984 1695.460234 1369.241094 C 1711.815156 1360.799844 1732.214844 1341.279453 1741.71125 1324.572813 C 1756.307578 1298.897344 1758.066172 1286.235469 1758.066172 1203.229844 L 1758.066172 1127.962031 L 466.203203 1127.962031 Z M 466.203203 1255.284219 " transform="matrix(0.0222124,0,0,0.0222124,0,0)"/>
</g>
</svg>
