<?xml version="1.0" encoding="UTF-8"?>
<svg xmlns="http://www.w3.org/2000/svg" xmlns:xlink="http://www.w3.org/1999/xlink" width="150px" height="150px" viewBox="0 0 150 150" version="1.1">
<g id="surface1">
<path style="fill:none;stroke-width:25;stroke-linecap:butt;stroke-linejoin:miter;stroke:rgb(0%,0%,0%);stroke-opacity:1;stroke-miterlimit:4;" d="M 468.547995 491.585573 L 468.547995 364.263385 L 1063.71474 364.322005 C 1701.322214 364.322005 1670.546823 363.677188 1697.863646 377.628698 C 1714.218568 386.011328 1734.559635 405.648958 1744.114661 422.355599 C 1758.71099 447.913828 1760.410964 460.634323 1760.410964 543.581328 L 1760.410964 618.849141 L 468.547995 618.849141 Z M 468.547995 491.585573 " transform="matrix(0.0666371,0,0,0.0666371,0,0)"/>
<path style="fill:none;stroke-width:25;stroke-linecap:butt;stroke-linejoin:miter;stroke:rgb(0%,0%,0%);stroke-opacity:1;stroke-miterlimit:4;" d="M 845.004297 881.583047 L 845.004297 751.564349 L 1760.410964 751.564349 L 1760.410964 1011.543125 L 845.004297 1011.543125 Z M 466.203203 1255.342839 L 466.203203 1382.606406 L 1061.369948 1382.606406 C 1698.918802 1382.547786 1668.202031 1383.192604 1695.460234 1369.241094 C 1711.873776 1360.858464 1732.214844 1341.220833 1741.76987 1324.514193 C 1756.366198 1298.955964 1758.066172 1286.235469 1758.066172 1203.288464 L 1758.066172 1128.020651 L 466.203203 1128.020651 Z M 466.203203 1255.342839 " transform="matrix(0.0666371,0,0,0.0666371,0,0)"/>
</g>
</svg>
