<?xml version="1.0" encoding="UTF-8"?>
<svg xmlns="http://www.w3.org/2000/svg" xmlns:xlink="http://www.w3.org/1999/xlink" width="200px" height="200px" viewBox="0 0 200 200" version="1.1">
<g id="surface1">
<path style="fill:none;stroke-width:25;stroke-linecap:butt;stroke-linejoin:miter;stroke:rgb(0%,0%,0%);stroke-opacity:1;stroke-miterlimit:4;" d="M 468.53334 491.570918 L 468.53334 364.292695 L 1063.68543 364.292695 C 1701.307559 364.33666 1670.532168 363.677188 1697.834336 377.658008 C 1714.233223 386.011328 1734.54498 405.663613 1744.085352 422.370254 C 1758.725645 447.913828 1760.440273 460.619668 1760.440273 543.581328 L 1760.440273 618.849141 L 468.53334 618.849141 Z M 468.53334 491.570918 " transform="matrix(0.0888494,0,0,0.0888494,0,0)"/>
<path style="fill:none;stroke-width:25;stroke-linecap:butt;stroke-linejoin:miter;stroke:rgb(0%,0%,0%);stroke-opacity:1;stroke-miterlimit:4;" d="M 845.004297 881.583047 L 845.004297 751.579004 L 1760.440273 751.579004 L 1760.440273 1011.58709 L 845.004297 1011.58709 Z M 466.203203 1255.328184 L 466.203203 1382.606406 L 1061.355293 1382.562441 C 1698.933457 1382.562441 1668.158066 1383.177949 1695.504199 1369.241094 C 1711.859121 1360.843809 1732.170879 1341.235488 1741.755215 1324.528848 C 1756.351543 1298.985273 1758.066172 1286.235469 1758.066172 1203.273809 L 1758.066172 1128.049961 L 466.203203 1128.049961 Z M 466.203203 1255.328184 " transform="matrix(0.0888494,0,0,0.0888494,0,0)"/>
</g>
</svg>
