<?xml version="1.0" encoding="UTF-8" standalone="no"?>
<!-- Created with Inkscape (http://www.inkscape.org/) -->

<svg
   version="1.1"
   id="svg2687"
   xml:space="preserve"
   width="2250.6399"
   height="2250.6399"
   viewBox="0 0 2250.6399 2250.6399"
   sodipodi:docname="threefold logo vector outline.svg"
   inkscape:version="1.1.2 (b8e25be833, 2022-02-05)"
   xmlns:inkscape="http://www.inkscape.org/namespaces/inkscape"
   xmlns:sodipodi="http://sodipodi.sourceforge.net/DTD/sodipodi-0.dtd"
   xmlns="http://www.w3.org/2000/svg"
   xmlns:svg="http://www.w3.org/2000/svg"><defs
     id="defs2691"><clipPath
       clipPathUnits="userSpaceOnUse"
       id="clipPath2703"><path
         d="M 0,1687.981 H 1687.981 V 0 H 0 Z"
         id="path2701" /></clipPath></defs><sodipodi:namedview
     id="namedview2689"
     pagecolor="#ffffff"
     bordercolor="#666666"
     borderopacity="1.0"
     inkscape:pageshadow="2"
     inkscape:pageopacity="0.0"
     inkscape:pagecheckerboard="0"
     showgrid="false"
     inkscape:zoom="0.52216771"
     inkscape:cx="914.45716"
     inkscape:cy="808.16947"
     inkscape:window-width="1920"
     inkscape:window-height="1017"
     inkscape:window-x="-8"
     inkscape:window-y="-8"
     inkscape:window-maximized="1"
     inkscape:current-layer="layer3" /><g
     inkscape:groupmode="layer"
     id="layer3"
     inkscape:label="threefold logo vector 2"><path
       style="fill:#000000;stroke:#000000;stroke-width:25;stroke-miterlimit:4;stroke-dasharray:none;stroke-dashoffset:0;stroke-opacity:1;fill-opacity:0"
       d="M 468.54477,491.56575 V 364.27324 l 595.16023,0.0322 c 637.5975,0.0344 606.8296,-0.61319 634.1388,13.34784 16.393,8.3804 36.7011,28.01231 46.26,44.71959 14.6115,25.53819 16.3245,38.2584 16.3245,121.22063 v 75.26481 H 1114.4865 468.54477 Z"
       id="path2876"
       transform="translate(0,5.6266e-5)" /><path
       style="fill:#000000;stroke:#000000;stroke-width:25;fill-opacity:0;stroke-opacity:1;stroke-miterlimit:4;stroke-dasharray:none"
       d="M 845.00559,881.56833 V 751.56747 H 1302.717 1760.4283 V 881.56833 1011.5692 H 1302.717 845.00559 Z"
       id="path2915"
       transform="translate(0,5.6266e-5)" /><path
       style="fill:#000000;stroke:#000000;stroke-width:25;fill-opacity:0;stroke-opacity:1;stroke-miterlimit:4;stroke-dasharray:none"
       d="m 466.18932,1255.3207 v 127.2926 l 595.16018,-0.032 c 637.5975,-0.034 606.8296,0.6131 634.1388,-13.3479 16.393,-8.3804 36.7011,-28.0123 46.26,-44.7196 14.6115,-25.5382 16.3245,-38.2584 16.3245,-121.2206 v -75.2648 H 1112.131 466.18932 Z"
       id="path3017" /></g></svg>
