<?xml version="1.0" standalone="no"?>
<!DOCTYPE svg PUBLIC "-//W3C//DTD SVG 20010904//EN"
 "http://www.w3.org/TR/2001/REC-SVG-20010904/DTD/svg10.dtd">
<svg version="1.0" xmlns="http://www.w3.org/2000/svg"
 width="120.000000pt" height="120.000000pt" viewBox="0 0 120.000000 120.000000"
 preserveAspectRatio="xMidYMid meet">
<metadata>
Created by potrace 1.14, written by Peter Selinger 2001-2017
</metadata>
<g transform="translate(0.000000,120.000000) scale(0.100000,-0.100000)"
fill="#000000" stroke="none">
<path d="M190 845 l0 -85 412 2 412 3 -2 60 c-2 50 -7 64 -28 83 l-25 22 -385
0 -384 0 0 -85z"/>
<path d="M430 595 l0 -85 291 2 291 3 0 80 0 80 -291 3 -291 2 0 -85z"/>
<path d="M190 355 l0 -85 384 0 c373 0 384 1 410 21 23 18 26 27 26 85 l0 64
-410 0 -410 0 0 -85z"/>
</g>
</svg>
